<?xml version="1.0" encoding="UTF-8"?>
<svg version="1.1" xmlns="http://www.w3.org/2000/svg" width="2000" height="2000">
<path d="M0 0 C2.3957905 -0.00209079 4.79158037 -0.00505662 7.18736884 -0.00880873 C12.37667374 -0.01494401 17.56594038 -0.01497406 22.75524438 -0.00944164 C30.52380587 -0.00119712 38.29233368 -0.00463263 46.060896 -0.01020693 C59.30617583 -0.01937439 72.55144026 -0.01912284 85.79672146 -0.01364517 C99.20923518 -0.00813222 112.62173878 -0.00699035 126.03425312 -0.01111984 C127.30752881 -0.01150736 127.30752881 -0.01150736 128.60652723 -0.01190271 C132.06406702 -0.01296931 135.52160679 -0.01406674 138.97914655 -0.01520326 C171.14389618 -0.02576858 203.30863902 -0.02650525 235.47338963 -0.02090836 C236.42548444 -0.02074276 237.37757926 -0.02057717 238.35852543 -0.02040657 C239.78896496 -0.02015778 239.78896496 -0.02015778 241.24830225 -0.01990396 C270.31774112 -0.01485476 299.38717719 -0.01355613 328.4566164 -0.01594925 C330.40431477 -0.01610421 332.35201314 -0.01625852 334.2997115 -0.01641219 C342.12697363 -0.01703314 349.95423576 -0.01767047 357.78149788 -0.01833172 C379.66093628 -0.0201656 401.54037469 -0.0213069 423.41981316 -0.02190399 C424.41609235 -0.02193128 425.41237154 -0.02195857 426.43884101 -0.02198669 C458.17751237 -0.02280507 489.91618276 -0.0205524 521.65485382 -0.01620483 C523.19864123 -0.01599409 523.19864123 -0.01599409 524.77361627 -0.01577908 C541.48633368 -0.01348927 558.19905107 -0.0110503 574.91176846 -0.00859874 C641.19617099 0.00111408 707.48056543 0.00066257 773.76496792 -0.00905991 C790.47050666 -0.01150234 807.1760454 -0.01392447 823.88158417 -0.01620483 C825.42457408 -0.01641618 825.42457408 -0.01641618 826.99873551 -0.01663179 C858.7056486 -0.02094494 890.41256103 -0.02277257 922.11947441 -0.02190399 C923.11500571 -0.02187682 924.11053702 -0.02184965 925.13623593 -0.02182166 C946.9908757 -0.02119667 968.8455154 -0.01992933 990.7001551 -0.01808299 C998.52004482 -0.01742472 1006.33993453 -0.01679856 1014.15982425 -0.01618156 C1016.10515737 -0.01602679 1018.0504905 -0.01586933 1019.99582362 -0.01570917 C1049.05722141 -0.0133232 1078.11861603 -0.01535251 1107.18001342 -0.02040657 C1108.13219103 -0.02057216 1109.08436864 -0.02073775 1110.06540012 -0.02090836 C1111.49102452 -0.0211564 1111.49102452 -0.0211564 1112.94544942 -0.02140946 C1145.0175313 -0.02692872 1177.08960505 -0.02489095 1209.16168577 -0.01434687 C1212.6076713 -0.01324219 1216.05365683 -0.01216878 1219.49964237 -0.01111984 C1220.76817378 -0.01072922 1220.76817378 -0.01072922 1222.06233209 -0.01033071 C1235.43744521 -0.0063904 1248.8125482 -0.00912764 1262.18766041 -0.01465785 C1275.34840391 -0.01995655 1288.50913036 -0.0180765 1301.66987171 -0.00862968 C1309.37883145 -0.00330679 1317.08774436 -0.00337859 1324.79670183 -0.01159287 C1330.53121626 -0.01708607 1336.26568428 -0.01206834 1342.00019253 -0.00308032 C1344.29719596 -0.00107487 1346.59420542 -0.00237467 1348.89120401 -0.0074922 C1366.65863976 -0.04425081 1384.27960515 0.66150244 1401.70124722 4.43918228 C1402.70196255 4.65421402 1403.70267788 4.86924576 1404.73371792 5.09079361 C1427.56983636 10.22118396 1449.56266785 19.75193529 1468.70124722 33.25168228 C1469.72347378 33.96969009 1470.74570034 34.68769791 1471.79890347 35.42746353 C1478.67713828 40.42416831 1485.01980182 45.90183281 1491.15388393 51.77170181 C1492.1975638 52.7699327 1493.24620085 53.76300297 1494.29939175 54.751194 C1527.00660143 85.51189706 1548.10970733 131.79707807 1549.79414041 176.7296244 C1549.82905792 179.3169244 1549.8350927 181.90254961 1549.82889771 184.49007773 C1549.83137388 185.97073827 1549.83137388 185.97073827 1549.83390007 187.48131115 C1549.83821052 190.78567141 1549.83542832 194.08998678 1549.83267498 197.39434814 C1549.8343253 199.79888291 1549.83641188 202.20341741 1549.83889508 204.60795146 C1549.84329782 209.8506433 1549.84459609 215.09332651 1549.84316674 220.33601961 C1549.84104266 228.18471278 1549.84466312 236.03339621 1549.84938151 243.88208787 C1549.85724998 257.25967881 1549.86034331 270.63726708 1549.86082745 284.01486015 C1549.86132991 297.57228666 1549.86397759 311.12971017 1549.86923504 324.6871357 C1549.86956517 325.54339881 1549.86989531 326.39966192 1549.87023544 327.2818724 C1549.87158545 330.76931571 1549.87294812 334.25675901 1549.87432755 337.7442023 C1549.8906287 379.02978444 1549.89701603 420.31536601 1549.90177542 461.60095082 C1549.90415884 482.16011739 1549.90786236 502.71928364 1549.91181252 523.27844997 C1549.92447703 589.22997633 1549.9352608 655.18150268 1549.93865297 721.13303024 C1549.93881521 724.2850721 1549.93898077 727.43711395 1549.93914736 730.5891558 C1549.93948116 736.91059495 1549.93981164 743.23203409 1549.94014192 749.55347323 C1549.94052881 756.95429689 1549.94091842 764.35512055 1549.94131298 771.75594421 C1549.9414254 773.87411767 1549.94153682 775.99229114 1549.94164723 778.1104646 C1549.9451964 846.13371786 1549.96027368 914.15696055 1549.98358498 982.18020977 C1550.0003291 1031.0599716 1550.0158027 1079.93973143 1550.02031994 1128.81949615 C1550.02046017 1130.32770068 1550.02046017 1130.32770068 1550.02060323 1131.86637398 C1550.02262239 1153.94024024 1550.02377834 1176.01410646 1550.02413181 1198.0879728 C1550.02426799 1205.98675066 1550.02447698 1213.88552851 1550.02472507 1221.78430637 C1550.02478663 1223.74930544 1550.02484495 1225.71430451 1550.02490002 1227.67930358 C1550.02581941 1258.97617169 1550.03578252 1290.27302877 1550.0503575 1321.56989325 C1550.06498197 1353.09921542 1550.07001008 1384.62852406 1550.06193796 1416.15784902 C1550.06082264 1420.51837137 1550.05981197 1424.87889374 1550.05886364 1429.23941612 C1550.05867367 1430.09416777 1550.0584837 1430.94891941 1550.05828798 1431.82957262 C1550.05555834 1445.34321933 1550.06288342 1458.85684095 1550.07443701 1472.37048221 C1550.08559787 1485.67091022 1550.08598901 1498.9713029 1550.07506682 1512.27173147 C1550.06898955 1520.06079023 1550.07101376 1527.84974211 1550.0853188 1535.6387907 C1550.09503848 1541.43618998 1550.08893601 1547.23348986 1550.07690847 1553.03088086 C1550.0744869 1555.3507541 1550.07701415 1557.67063961 1550.08530495 1559.9904993 C1550.14776059 1578.70730595 1548.7789759 1597.14133288 1544.01374722 1615.31418228 C1543.75883511 1616.30184586 1543.503923 1617.28950943 1543.24128628 1618.3071022 C1530.7178512 1665.09791744 1500.72045022 1705.01931584 1459.14118862 1729.85910416 C1440.7400591 1740.36140982 1421.31235073 1747.60186986 1400.63874722 1752.06418228 C1399.29502041 1752.35688004 1399.29502041 1752.35688004 1397.92414761 1752.65549088 C1380.27302917 1756.1960268 1362.46258266 1756.54376079 1344.52668476 1756.50615788 C1342.13216996 1756.50855233 1339.73765591 1756.51182047 1337.34314334 1756.51587448 C1332.15350032 1756.52266726 1326.9638947 1756.52335065 1321.77425109 1756.51848499 C1314.00507672 1756.51123702 1306.23593737 1756.5156332 1298.46676389 1756.52216634 C1285.22062308 1756.53296634 1271.97449652 1756.53433251 1258.72835255 1756.53046799 C1245.31380059 1756.52658566 1231.89925924 1756.52705634 1218.48470783 1756.53277779 C1217.63587901 1756.53313661 1216.78705018 1756.53349544 1215.91249928 1756.53386514 C1212.45506045 1756.53534013 1208.99762165 1756.53684453 1205.54018285 1756.5383866 C1170.48068136 1756.55400506 1135.42118715 1756.55670236 1100.3616828 1756.55423054 C1095.52062362 1756.55389208 1090.67956445 1756.55356998 1085.83850527 1756.55326486 C1084.87689455 1756.55320381 1083.91528382 1756.55314277 1082.92453338 1756.55307988 C1061.59612991 1756.55180696 1040.26772744 1756.55441122 1018.93932426 1756.55779092 C1014.06653448 1756.55856167 1009.19374469 1756.5593064 1004.3209549 1756.56005594 C1002.36524207 1756.56035763 1000.40952925 1756.56065951 998.45381643 1756.56096158 C996.99967759 1756.5611861 996.99967759 1756.5611861 995.51616222 1756.56141516 C993.55524677 1756.56171869 991.59433132 1756.56202337 989.63341588 1756.5623292 C934.00544169 1756.57100027 878.37746838 1756.57564755 822.7494936 1756.57138157 C821.71980275 1756.57130351 820.6901119 1756.57122546 819.6292183 1756.57114503 C808.14756509 1756.57027226 796.66591189 1756.569343 785.18425868 1756.5683944 C784.1476721 1756.56830889 783.11108552 1756.56822338 782.04308722 1756.56813528 C773.43088754 1756.56742456 773.43088754 1756.56742456 769.46700457 1756.56709305 C703.16877789 1756.56155772 636.87056513 1756.56909896 570.57234097 1756.58786392 C553.86711473 1756.59258631 537.16188849 1756.59726689 520.45666218 1756.60170078 C518.91366 1756.60211077 518.91366 1756.60211077 517.33948606 1756.60252903 C485.62498055 1756.61090298 453.91047619 1756.61558024 422.19596958 1756.61640835 C420.70197986 1756.6164479 420.70197986 1756.6164479 419.17780854 1756.61648825 C397.31133044 1756.61702908 375.44485243 1756.61665646 353.57837436 1756.61544853 C345.75383236 1756.61502292 337.92929035 1756.61465779 330.10474835 1756.61431909 C328.15828041 1756.61423379 326.21181247 1756.61414485 324.26534453 1756.61405227 C293.27959888 1756.61260487 262.29386272 1756.61972083 231.30811935 1756.63105623 C199.22379408 1756.64271752 167.13948569 1756.64325763 135.05516033 1756.63121281 C131.60550456 1756.62996104 128.15584877 1756.62875755 124.70619297 1756.62759209 C123.85961801 1756.62730179 123.01304305 1756.6270115 122.1408143 1756.62671241 C108.76841884 1756.62239711 95.39604749 1756.62810018 82.02365581 1756.63803228 C68.85546358 1756.64759978 55.68730833 1756.64635394 42.51911822 1756.63382606 C34.81237356 1756.62681033 27.10573562 1756.62782945 19.39899872 1756.64117444 C13.65546905 1756.6501871 7.91204111 1756.64330458 2.16852248 1756.63058486 C-0.12425407 1756.62788067 -2.41704373 1756.63007606 -4.70980786 1756.63809201 C-61.8409071 1756.82402622 -112.30433063 1739.81188622 -153.36125278 1699.56418228 C-194.84965843 1657.991822 -206.48352503 1602.44902877 -206.42738724 1545.64649582 C-206.4287358 1543.27734617 -206.43052078 1540.90819675 -206.43269947 1538.53904772 C-206.43691821 1532.72091693 -206.43653226 1526.90279937 -206.43417243 1521.08466784 C-206.43159028 1514.05959217 -206.43487205 1507.0345221 -206.43829224 1500.00944723 C-206.44451242 1486.88257285 -206.44600036 1473.75570177 -206.44487476 1460.62882614 C-206.443749 1447.3323468 -206.44478896 1434.03587025 -206.44844723 1420.73939133 C-206.44867688 1419.89847733 -206.44890653 1419.05756333 -206.44914315 1418.19116709 C-206.45008482 1414.76604246 -206.45104051 1411.34091784 -206.45201434 1407.91579322 C-206.46215025 1372.21336884 -206.46522001 1336.51094603 -206.46580645 1300.80852038 C-206.4658712 1296.96743651 -206.46593914 1293.12635265 -206.46600986 1289.28526878 C-206.46602686 1288.33206025 -206.46604386 1287.37885171 -206.46606138 1286.39675807 C-206.46647009 1265.2602008 -206.46866082 1244.12364382 -206.4711657 1222.9870867 C-206.47219408 1214.27985521 -206.47318412 1205.57262371 -206.47418195 1196.86539221 C-206.47429254 1195.90327631 -206.47440313 1194.94116041 -206.47451707 1193.94988948 C-206.48083991 1138.82641945 -206.48496632 1083.70294962 -206.48450851 1028.57947922 C-206.48449274 1026.51719624 -206.484477 1024.45491327 -206.48446131 1022.39263029 C-206.48438792 1013.08189051 -206.48429975 1003.77115073 -206.48420742 994.46041096 C-206.4841663 990.30863694 -206.48412615 986.15686292 -206.48408611 982.0050889 C-206.48406571 979.92705294 -206.48404469 977.84901697 -206.48402305 975.77098101 C-206.48334286 910.06662913 -206.49065965 844.36228265 -206.50456333 778.65793228 C-206.50806446 762.10376614 -206.51153396 745.54959999 -206.51482773 728.99543381 C-206.5150306 727.97607712 -206.51523348 726.95672044 -206.5154425 725.90647415 C-206.52165925 694.47974213 -206.5254234 663.05301054 -206.52668571 631.62627792 C-206.52672567 630.63933702 -206.52676562 629.65239612 -206.52680678 628.63554792 C-206.52766013 606.96787733 -206.52792122 585.30020676 -206.5276364 563.63253615 C-206.52753992 555.87910038 -206.52748787 548.12566461 -206.52745767 540.37222884 C-206.52744976 538.44343379 -206.52743955 536.51463873 -206.52742705 534.58584367 C-206.52725087 503.87807269 -206.53294277 473.17030633 -206.54158086 442.46253667 C-206.55023887 411.52672705 -206.55241513 380.59092383 -206.54581954 349.65511351 C-206.54490732 345.37513626 -206.54406402 341.095159 -206.54326153 336.81518173 C-206.54310144 335.97623636 -206.54294135 335.13729099 -206.54277641 334.27292303 C-206.54042851 321.01885441 -206.54476915 307.76479689 -206.55193271 294.51073035 C-206.55884501 281.46026406 -206.55855467 268.40981407 -206.55074058 255.35934812 C-206.54675826 248.38581614 -206.54581389 241.41231975 -206.55419793 234.43879062 C-206.56152761 228.0820787 -206.55948099 221.7254382 -206.55027406 215.36872935 C-206.54856705 213.09570306 -206.55013371 210.82267103 -206.55557527 208.54965061 C-206.58137977 196.98688063 -206.31252663 185.51090816 -205.41991597 173.97906256 C-205.34397797 172.98403729 -205.26803997 171.98901203 -205.18980082 170.96383449 C-201.09397831 122.9953018 -177.52327692 77.26152383 -141.23625278 45.62668228 C-129.65782916 36.2654036 -117.53745733 28.06476333 -104.29875278 21.25168228 C-103.14761997 20.64969009 -101.99648716 20.04769791 -100.81047153 19.42746353 C-68.858251 3.61129208 -35.14624762 -0.07839033 0 0 Z " fill="#4B61F5" transform="translate(328.298752784729,121.74831771850586)"/>
<path d="M0 0 C12.32720206 8.68216014 17.7334778 22.20645052 24.0625 35.375 C24.82088441 36.94425076 25.57943176 38.51342278 26.33813477 40.08251953 C31.32304626 50.41319075 36.18266201 60.79674823 40.97485352 71.21826172 C45.51278988 81.04684287 50.24376777 90.77565238 55 100.5 C62.05412998 114.92408899 68.90272215 129.42505286 75.61865234 144.00976562 C80.06560276 153.63617933 84.57375402 163.23221605 89.375 172.6875 C92.06680842 178.0024164 94.5521371 183.38910929 97.00170898 188.81982422 C101.53001292 198.84969788 106.0374959 208.72797115 112 218 C112.43957031 218.68578125 112.87914062 219.3715625 113.33203125 220.078125 C121.27538535 230.73325859 136.88286414 236.71940546 148.25976562 242.77124023 C154.50485277 246.09690159 160.68192663 249.48638826 166.75 253.125 C173.86904438 257.38962416 181.12028281 261.37428245 188.41796875 265.32421875 C196.2200944 269.55441689 203.95148626 273.9015626 211.66992188 278.28222656 C217.47125459 281.57386088 223.28736141 284.83573338 229.125 288.0625 C235.42810684 291.54907076 241.69062436 295.1012322 247.9375 298.6875 C256.15087689 303.39986634 264.40718342 308.03136386 272.6875 312.625 C273.83532959 313.26203857 274.98315918 313.89907715 276.16577148 314.55541992 C281.21630256 317.35580393 286.2697872 320.15053002 291.33203125 322.9296875 C321.55387634 339.54110515 321.55387634 339.54110515 326.375 350.41015625 C328.4451401 358.98829929 328.37279738 369.80241078 324.421875 377.8125 C317.76396063 388.05544519 307.41468797 393.28511971 297 399 C295.42053454 399.87362854 293.84110782 400.74732712 292.26171875 401.62109375 C288.93538755 403.45604486 285.60345279 405.28044655 282.26953125 407.1015625 C276.83708848 410.07760517 271.44840717 413.12825988 266.0625 416.1875 C257.20444299 421.2159459 248.30078256 426.15582144 239.375 431.0625 C229.95344494 436.24232597 220.57469438 441.48822173 211.25292969 446.84619141 C205.17314079 450.33891216 199.05852988 453.76276634 192.92236328 457.15527344 C186.02728956 460.97200127 179.17414798 464.86122502 172.32104492 468.75268555 C166.76232964 471.90022617 161.18358166 475.00705922 155.578125 478.0703125 C125.04993288 494.75572015 110.01157409 507.56989015 95.35035706 539.56924438 C91.67021975 547.59774258 87.86297946 555.55809979 84 563.5 C79.50617413 572.74769147 75.10894517 582.03348663 70.8125 591.375 C65.14353423 603.68838948 59.21712374 615.86774066 53.25537109 628.04150391 C48.16607351 638.43858408 43.14938702 648.85752942 38.3125 659.375 C33.48551666 669.86746039 28.53133711 680.29173724 23.5 690.6875 C23.15997955 691.39227478 22.81995911 692.09704956 22.46963501 692.82318115 C8.22803187 722.32151036 8.22803187 722.32151036 -5.0078125 727.359375 C-13.45048262 730.07427284 -20.82323803 729.15117737 -29 726 C-32.1875 724.25 -32.1875 724.25 -35 722 C-35.49588623 721.62157959 -35.99177246 721.24315918 -36.50268555 720.85327148 C-43.51531911 714.76056804 -46.76275848 706.04957016 -50.625 697.8125 C-51.42671718 696.13127275 -52.22962923 694.45061481 -53.03369141 692.77050781 C-58.07371126 682.20979568 -63.00082623 671.59561883 -67.88525391 660.9621582 C-72.76070825 650.39464491 -77.87698185 639.94913953 -83 629.5 C-89.29964126 616.6502708 -95.50148121 603.77193706 -101.48046875 590.76953125 C-105.58608908 581.84933039 -109.82930412 573.00098064 -114.11791992 564.16748047 C-116.93784377 558.34193775 -119.70746358 552.49887052 -122.390625 546.609375 C-135.61969272 517.58055158 -148.02056921 497.84427525 -177.25 482.75 C-178.47873442 482.10486869 -179.70683146 481.45852215 -180.93432617 480.81103516 C-183.42402105 479.49858028 -185.91589993 478.19044006 -188.40966797 476.88574219 C-193.73524235 474.09458604 -199.02607934 471.23947899 -204.3125 468.375 C-205.28936768 467.84608154 -206.26623535 467.31716309 -207.27270508 466.7722168 C-215.95652978 462.0540174 -224.55992174 457.19854738 -233.15234375 452.31640625 C-239.25320484 448.85063954 -245.37536756 445.42353431 -251.5 442 C-269.16374487 432.11804201 -286.79192273 422.1728568 -304.34643555 412.09790039 C-305.5265174 411.42071381 -306.70661182 410.74354912 -307.88671875 410.06640625 C-308.47168625 409.73069107 -309.05665375 409.39497589 -309.65934753 409.04908752 C-313.23411727 407.0010126 -316.8203648 404.97496375 -320.41722107 402.96594238 C-322.19031122 401.9741958 -323.96025178 400.97705531 -325.72924805 399.97802734 C-327.91389425 398.74567893 -330.10378976 397.5225663 -332.30004883 396.31103516 C-342.65972991 390.43404527 -354.56605142 382.08916123 -358.4921875 370.265625 C-360.05191698 363.30683192 -359.70614144 356.64204584 -356.44921875 350.25390625 C-348.90394963 338.51908069 -337.76209352 331.69348111 -325.6875 325.3125 C-323.73863304 324.26609085 -321.79073909 323.2178678 -319.84375 322.16796875 C-318.86664062 321.64122559 -317.88953125 321.11448242 -316.8828125 320.57177734 C-312.44740627 318.15348929 -308.06569817 315.64499233 -303.6875 313.125 C-292.90476144 306.92754447 -282.05591891 300.85161262 -271.19824219 294.78662109 C-265.92242848 291.83941463 -260.64837611 288.88906544 -255.375 285.9375 C-254.33746582 285.35685791 -253.29993164 284.77621582 -252.23095703 284.17797852 C-245.35152596 280.32504516 -238.48540299 276.44918993 -231.625 272.5625 C-223.35410152 267.87898777 -215.06015026 263.23850031 -206.75 258.625 C-205.62964355 258.00294678 -204.50928711 257.38089355 -203.35498047 256.73999023 C-198.11002075 253.82974576 -192.86292839 250.92342809 -187.61167908 248.02455139 C-180.39448239 244.0400389 -173.18971241 240.03396434 -166 236 C-165.17387207 235.53835449 -164.34774414 235.07670898 -163.49658203 234.60107422 C-144.39317575 223.85774776 -136.93907 209.78806705 -128.20776367 190.23046875 C-125.35440467 183.8504201 -122.31968955 177.59054983 -119.17301941 171.35227966 C-115.47173869 163.9933492 -111.95648192 156.54935705 -108.44735718 149.09735107 C-106.48188699 144.92370655 -104.51064013 140.75279343 -102.5390625 136.58203125 C-101.95311562 135.34223511 -101.95311562 135.34223511 -101.35533142 134.07739258 C-98.00321488 126.99178281 -94.60317083 119.93020729 -91.1875 112.875 C-86.38150859 102.94127404 -81.71715 92.94800505 -77.09790039 82.92626953 C-72.09577761 72.11651463 -66.89643946 61.40599601 -61.64331055 50.71630859 C-58.04479688 43.36961341 -54.60439621 35.98272541 -51.40286255 28.45318604 C-46.50236579 17.00486667 -40.26001525 4.88555582 -28.8125 -1.0625 C-19.7891101 -4.67435551 -8.72958966 -4.44261127 0 0 Z " fill="#FEFDFE" transform="translate(1272,427)"/>
<path d="M0 0 C0.78866455 0.01208496 1.5773291 0.02416992 2.38989258 0.03662109 C10.89624939 0.32556579 18.12242518 2.55970502 24.37158203 8.55932617 C31.11860851 16.02689976 35.12683149 25.42707854 39.0625 34.5625 C40.19342204 37.14449449 41.33245808 39.7228716 42.47265625 42.30078125 C42.76700562 42.96778046 43.06135498 43.63477966 43.36462402 44.32199097 C46.77789146 52.02669325 50.38910936 59.63648816 54 67.25 C60.13341015 80.19886603 66.11978505 93.2080374 72.02490234 106.26245117 C75.46818378 113.87205636 78.9450013 121.46214398 82.55053711 128.99658203 C84.41005422 132.90275041 86.13016363 136.84946044 87.80200195 140.83935547 C94.85455486 157.55003639 104.80714295 167.76672262 120.89953613 176.21563721 C124.12268129 177.9084316 127.32068422 179.64793901 130.5234375 181.37890625 C131.16941895 181.72628845 131.81540039 182.07367065 132.48095703 182.43157959 C138.52754351 185.69115118 144.4602201 189.13233137 150.375 192.625 C158.36376708 197.32787154 166.40058074 201.92778278 174.5 206.4375 C184.22057837 211.85056071 193.88043485 217.35992107 203.49951172 222.95141602 C208.81010828 226.03339409 214.13636036 229.07293072 219.5234375 232.01953125 C246.68269913 246.91014384 246.68269913 246.91014384 250.6875 259.23046875 C252.56900589 268.99078057 251.99435418 278.30748814 246.92578125 286.96484375 C240.3639405 296.20266294 229.79861113 301.06274483 220.125 306.5 C219.17286621 307.0357666 218.22073242 307.5715332 217.23974609 308.12353516 C211.95786612 311.09146482 206.66968949 314.04797711 201.37890625 317 C193.22441231 321.5552776 185.11979349 326.19622028 177.01708984 330.84277344 C171.99439235 333.72088171 166.96729598 336.59129351 161.94073486 339.46264648 C160.1314111 340.49633726 158.32226668 341.5303412 156.51318359 342.56445312 C150.19552107 346.17562351 143.87540223 349.78242783 137.55200195 353.38354492 C134.19627676 355.29783432 130.84618346 357.22186637 127.49609375 359.14599609 C125.13976669 360.49156754 122.77385586 361.81892889 120.40625 363.14453125 C101.54576693 373.80233621 92.58118143 386.69534945 83.625 406.125 C82.92564396 407.62719241 82.22576325 409.12914066 81.52539062 410.63085938 C76.19511929 422.08447795 70.97528087 433.58859648 65.77148438 445.10009766 C60.67436914 456.36282486 55.42814457 467.55172013 50.12084961 478.71679688 C46.67716279 485.97701466 43.32121927 493.2641467 40.09765625 500.625 C39.4344693 502.12770327 38.77106049 503.63030864 38.10742188 505.1328125 C36.86252277 507.95246376 35.64230717 510.78104478 34.43554688 513.6171875 C30.01853309 523.76585488 24.70683462 532.51929928 14.5 537.625 C5.80294356 540.73109159 -3.84871526 541.33782174 -12.375 537.4375 C-14.74609375 536.01171875 -14.74609375 536.01171875 -16.875 534.5 C-17.48472656 534.07332031 -18.09445312 533.64664063 -18.72265625 533.20703125 C-30.74557343 522.99165971 -36.30562146 503.15747457 -42.65516663 489.04908752 C-47.80448302 477.60938504 -53.0902028 466.23516566 -58.38653564 454.86294556 C-62.93973058 445.07939193 -67.44450594 435.27748979 -71.83984375 425.421875 C-72.24411087 424.51663589 -72.64837799 423.61139679 -73.06489563 422.6787262 C-74.99472648 418.35437684 -76.91653361 414.02674142 -78.82543945 409.69311523 C-88.43926494 387.99831565 -99.44740091 372.6017864 -120.9375 361.4375 C-129.29626506 357.00502673 -137.53987195 352.43469378 -145.6875 347.625 C-154.32471678 342.53350545 -163.0351392 337.59414699 -171.8125 332.75 C-179.72149104 328.38110792 -187.59995713 323.98353943 -195.35913086 319.35327148 C-199.66839292 316.78464444 -204.00844423 314.27789477 -208.37109375 311.80078125 C-210.12539038 310.8014624 -211.87945449 309.80173623 -213.6335144 308.80200195 C-215.32137175 307.84297126 -217.0132861 306.89109167 -218.70532227 305.93945312 C-230.89239251 298.98656735 -244.24003057 290.39626359 -248.5625 276.25 C-248.665625 275.3425 -248.76875 274.435 -248.875 273.5 C-248.96265625 272.80261719 -249.0503125 272.10523438 -249.140625 271.38671875 C-249.75357478 262.65218435 -246.23430428 255.88109267 -241 249.0546875 C-235.38956949 242.95546949 -228.55960506 238.94989812 -221.40527344 234.92578125 C-218.48237023 233.27875744 -215.57313187 231.60883525 -212.6640625 229.9375 C-207.8955094 227.20098142 -203.12206239 224.47334281 -198.34375 221.75390625 C-193.4646935 218.97709587 -188.58944205 216.19380031 -183.71875 213.40234375 C-172.52727377 206.99008299 -161.32097611 200.60674012 -150.0625 194.3125 C-149.04542969 193.74362061 -148.02835937 193.17474121 -146.98046875 192.58862305 C-142.91555548 190.31577181 -138.85030604 188.04354757 -134.78222656 185.77636719 C-128.12111422 182.0612324 -121.47809967 178.31743733 -114.875 174.5 C-114.14619629 174.07879883 -113.41739258 173.65759766 -112.66650391 173.22363281 C-101.66359301 166.77759035 -93.78735954 159.91675752 -88.1484375 148.3046875 C-87.80631226 147.60990799 -87.46418701 146.91512848 -87.11169434 146.19929504 C-83.06272627 137.92605025 -79.21464878 129.55930993 -75.375 121.1875 C-74.58833258 119.47769217 -73.80146332 117.76797721 -73.0144043 116.05834961 C-67.55171351 104.18489774 -62.12634191 92.29444735 -56.7026062 80.40316772 C-51.22283462 68.39391534 -45.67905234 56.41550428 -40.03979492 44.48022461 C-39.43145832 43.19255481 -38.82314083 41.90487597 -38.21484375 40.6171875 C-37.92332932 40.00035599 -37.63181488 39.38352448 -37.33146667 38.7480011 C-35.59456209 35.06179997 -33.90602435 31.35770587 -32.25390625 27.6328125 C-27.36333915 16.68818832 -22.40351201 6.66128887 -11.05395508 1.28295898 C-7.37306692 -0.03968621 -3.87762796 -0.09555924 0 0 Z " fill="#FEFDFE" transform="translate(659.875,1021.5)"/>
<path d="M0 0 C0.66 0 1.32 0 2 0 C2.3623877 1.01199463 2.72477539 2.02398926 3.09814453 3.06665039 C4.47086016 6.89772693 5.84723884 10.72747959 7.22460938 14.55688477 C7.81509455 16.2000923 8.40464555 17.8436359 8.99316406 19.48754883 C12.39541587 28.98888855 15.91965948 38.41304487 19.70898438 47.7668457 C21.32988596 51.82614973 22.78610141 55.92347465 24.1875 60.0625 C27.03677804 68.31535198 29.96871502 76.53717028 32.95669556 84.74069214 C33.43860172 86.06566746 33.91876514 87.39127811 34.39706421 88.71755981 C39.81698666 105.45961242 39.81698666 105.45961242 52.76513672 116.30175781 C56.12942981 117.66213656 59.51921565 118.90667428 62.9375 120.125 C64.2199625 120.59482441 65.501852 121.06621547 66.78320312 121.5390625 C69.47912754 122.53201585 72.17766944 123.51731676 74.87841797 124.49707031 C80.93642117 126.69936234 86.96625289 128.97660336 92.99880981 131.24743652 C95.00434575 132.00163425 97.01068553 132.75365048 99.01733398 133.50488281 C109.39871372 137.39146267 119.76523937 141.31643457 130.12768555 145.25317383 C138.74303918 148.52573813 147.36580154 151.77747239 156 155 C154.35520416 158.28959168 150.75124767 158.88867013 147.46875 160.16015625 C146.69420975 160.46611221 145.91966949 160.77206818 145.12165833 161.08729553 C142.5840585 162.08675226 140.04238055 163.07527329 137.5 164.0625 C135.75282161 164.74521163 134.00567002 165.42799184 132.25854492 166.11083984 C96.54986018 180.02856877 96.54986018 180.02856877 81.9375 183.5625 C69.4331598 186.60106127 57.48179109 192.14778457 48 201 C47.32839844 201.61875 46.65679688 202.2375 45.96484375 202.875 C36.75622931 212.2433014 32.07015513 224.76766827 28.4375 237.15625 C21.14597806 262.01564936 11.70349033 286.00768264 2 310 C1.34 310 0.68 310 0 310 C-0.61197917 308.40885417 -1.22395833 306.81770833 -1.8359375 305.2265625 C-2.23554687 304.18765869 -2.63515625 303.14875488 -3.046875 302.07836914 C-3.94552982 299.74170141 -4.84396102 297.40494766 -5.7421875 295.06811523 C-8.00272702 289.18796529 -10.26595745 283.30890174 -12.5390625 277.43359375 C-16.82144288 266.35516978 -21.05309717 255.25959136 -25.1875 244.125 C-25.60483398 243.00174316 -26.02216797 241.87848633 -26.45214844 240.72119141 C-28.68378646 234.67842532 -30.82666432 228.61569384 -32.87939453 222.51000977 C-37.15711148 209.86999196 -40.9924729 200.89025415 -53 194 C-57.35404 192.12876817 -61.78575537 190.57282853 -66.28179932 189.08764648 C-69.27790003 188.09717473 -72.26107469 187.07010156 -75.24542236 186.04486084 C-76.81025482 185.50730862 -78.3756505 184.97139334 -79.94158936 184.43707275 C-88.22395729 181.60405287 -96.42740962 178.56824196 -104.625 175.5 C-105.33991608 175.23269073 -106.05483215 174.96538147 -106.79141235 174.68997192 C-109.67363724 173.61211132 -112.55569277 172.5338072 -115.43693542 171.45332336 C-119.94097351 169.76535285 -124.45072919 168.09374336 -128.96524048 166.43399048 C-131.96939075 165.32889418 -134.97149523 164.21830829 -137.97332764 163.10693359 C-139.39890848 162.58058519 -140.82537449 162.05662755 -142.25274658 161.53515625 C-144.21524305 160.81769817 -146.1743156 160.09157275 -148.1328125 159.36328125 C-149.80174561 158.74900269 -149.80174561 158.74900269 -151.50439453 158.12231445 C-154 157 -154 157 -155 155 C-142.10569727 150.08184519 -129.20717252 145.1749088 -116.30151367 140.28662109 C-110.03303777 137.91210922 -103.76753269 135.53032625 -97.5078125 133.1328125 C-95.04703521 132.19228904 -92.58609928 131.25218056 -90.125 130.3125 C-88.92842773 129.85488281 -87.73185547 129.39726563 -86.49902344 128.92578125 C-80.82263634 126.77015189 -75.13789609 124.67894473 -69.3828125 122.7421875 C-68.34495605 122.39244873 -67.30709961 122.04270996 -66.23779297 121.68237305 C-64.32694788 121.04610129 -62.41218347 120.42140757 -60.49267578 119.81176758 C-51.62963732 116.87377594 -44.34407869 112.94460337 -39.39013672 104.78466797 C-36.38460452 98.76410241 -34.26077191 92.40899209 -32.0625 86.0625 C-31.27334614 83.82982647 -30.47972742 81.5987722 -29.68591309 79.36775208 C-29.16667788 77.90746879 -28.64883791 76.4466886 -28.13244629 74.98539734 C-26.22635873 69.59722333 -24.22785109 64.25226503 -22.125 58.9375 C-21.85091309 58.24205078 -21.57682617 57.54660156 -21.29443359 56.83007812 C-20.77459898 55.51125613 -20.25443364 54.19256444 -19.73388672 52.87402344 C-15.14352061 41.15225024 -10.88116294 29.29641333 -6.5144043 17.49047852 C-4.35601234 11.65532787 -2.19078723 5.82306964 0 0 Z " fill="#FEFDFE" transform="translate(598,446)"/>
<path d="M0 0 C2.43384813 2.43384813 3.02364892 4.42523322 4.1796875 7.66796875 C4.60741455 8.85447021 5.0351416 10.04097168 5.47583008 11.26342773 C5.70299713 11.9007785 5.93016418 12.53812927 6.16421509 13.1947937 C7.38931933 16.6294093 8.63355775 20.05705688 9.87890625 23.484375 C10.13691513 24.19500595 10.39492401 24.9056369 10.66075134 25.63780212 C13.49553686 33.41297928 16.51954022 41.11144552 19.55032349 48.81219482 C22.73254179 56.91383292 25.75512347 65.05559927 28.625 73.2734375 C29.08588264 74.58644585 29.08588264 74.58644585 29.55607605 75.92597961 C31.06263325 80.22087391 32.55324213 84.52011346 34.0168457 88.82983398 C38.29181167 101.20255998 42.82625759 111.70505108 55 118 C63.32151399 121.78673893 71.90574899 124.7744947 80.5625 127.6875 C94.80721839 132.53225432 108.91416532 137.71083789 123 143 C125.17883418 143.81628525 127.35785236 144.63207809 129.53688049 145.44784546 C138.02669466 148.62629186 146.51411324 151.81108352 155 155 C155 155.66 155 156.32 155 157 C145.80089243 160.53101081 136.59832231 164.0527096 127.38986206 167.55926514 C123.39521705 169.08163379 119.4065153 170.61729724 115.42578125 172.17578125 C106.69852969 175.55086384 97.93450412 178.14937358 88.875 180.5 C67.82716553 185.98563663 48.67181279 193.061948 37.00585938 212.76098633 C29.64782635 225.93936636 25.70239757 240.86236233 21.625 255.3125 C18.49825703 266.39258522 14.25417403 277.10639469 10.18505859 287.86621094 C8.83531254 291.43550231 7.49786405 295.00928739 6.16186523 298.58374023 C5.11198332 301.39070034 4.05650852 304.1955282 3 307 C0.6875 306.8125 0.6875 306.8125 -2 306 C-5.09551968 301.80066355 -6.52771761 296.98558152 -8.16796875 292.09375 C-8.78655534 290.28848137 -9.40690169 288.48381499 -10.02880859 286.6796875 C-10.35121521 285.74415039 -10.67362183 284.80861328 -11.00579834 283.84472656 C-12.62977608 279.19801072 -14.33712103 274.58300381 -16.05078125 269.96875 C-16.39535873 269.03943161 -16.73993622 268.11011322 -17.09495544 267.15263367 C-18.53985024 263.26021679 -19.98856754 259.36923119 -21.43844604 255.47866821 C-28.8730944 235.52002927 -28.8730944 235.52002927 -32.046875 226.10546875 C-32.26913254 225.45325348 -32.49139008 224.80103821 -32.72038269 224.12905884 C-33.70809454 221.230286 -34.67661943 218.32864799 -35.60473633 215.41015625 C-38.34987305 207.30627707 -42.08249933 200.67788077 -49.80786133 196.47094727 C-52.8381368 195.17540713 -55.8795627 194.05846992 -59 193 C-60.74489225 192.35704374 -62.48968715 191.71382322 -64.234375 191.0703125 C-66.07219312 190.41982713 -67.91077755 189.77150401 -69.75 189.125 C-97.04411028 179.40588348 -124.3939323 169.48662481 -151 158 C-151 156.68 -151 155.36 -151 154 C-148.00127808 152.78847932 -145.00076586 151.58144826 -142 150.375 C-141.18015625 150.04371094 -140.3603125 149.71242188 -139.515625 149.37109375 C-126.40472784 144.10686989 -113.12482903 139.28929528 -99.83291626 134.50540161 C-97.49874645 133.66453323 -95.16566066 132.82071111 -92.83276367 131.97631836 C-85.70906708 129.40030884 -78.58117349 126.84274289 -71.421875 124.3671875 C-70.29322021 123.97313721 -69.16456543 123.57908691 -68.00170898 123.1730957 C-65.95540546 122.46050022 -63.9056735 121.75763222 -61.85180664 121.06713867 C-53.49182692 118.14096155 -44.68609358 113.89346895 -40 106 C-35.86930174 97.19937666 -32.80430826 87.94830501 -29.63934326 78.77005005 C-25.20784133 65.93367656 -20.63708451 53.17835082 -15.68896484 40.53100586 C-11.79337163 30.55602292 -8.12735373 20.50126024 -4.48974609 10.42993164 C-4.04840332 9.21426514 -3.60706055 7.99859863 -3.15234375 6.74609375 C-2.76038818 5.65997803 -2.36843262 4.5738623 -1.96459961 3.45483398 C-1 1 -1 1 0 0 Z " fill="#FEFDFE" transform="translate(1413,1260)"/>
</svg>
